<svg id="Layer_1" data-name="Layer 1" xmlns="http://www.w3.org/2000/svg" viewBox="0 0 224 45"><defs><style>.cls-1{fill:#27282b;}.cls-2{font-size:21px;fill:#f2f2f2;font-family:LimeStone-Heavy, LimeStone;}.cls-3{letter-spacing:-0.03em;}</style></defs><title>Artboard 1</title><rect class="cls-1" x="0.5" y="0.5" width="223" height="44" rx="11.5" ry="11.5"/><path class="cls-1" d="M212,1a11,11,0,0,1,11,11V33a11,11,0,0,1-11,11H12A11,11,0,0,1,1,33V12A11,11,0,0,1,12,1H212m0-1H12A12,12,0,0,0,0,12V33A12,12,0,0,0,12,45H212a12,12,0,0,0,12-12V12A12,12,0,0,0,212,0Z"/><text class="cls-2" transform="translate(41.86 30.44)">GÅ TIL BE<tspan class="cls-3" x="80.3" y="0">T</tspan><tspan x="89.71" y="0">ALING</tspan></text></svg>
